<?xml version="1.0" encoding="utf-8"?>
<svg id="logo" version="1.1"
	 xmlns="http://www.w3.org/2000/svg" xmlns:xlink="http://www.w3.org/1999/xlink" viewBox="0 0 130 29.5">
	<g>
		<path d="M40.923,18.198h-2.531c-1.121-0.009-1.977-0.292-2.568-0.853c-0.592-0.56-0.889-1.324-0.889-2.292v-5.88h1.381v6.324
			c0,0.4,0.061,0.731,0.186,0.996c0.123,0.264,0.283,0.478,0.48,0.642c0.195,0.164,0.418,0.278,0.666,0.342
			c0.248,0.064,0.496,0.097,0.744,0.097h2.531V18.198z"/>
		<path d="M42.058,9.45c0.172-0.176,0.381-0.265,0.629-0.265s0.461,0.089,0.637,0.265s0.264,0.388,0.264,0.636
			c0,0.12-0.025,0.234-0.078,0.342c-0.051,0.108-0.121,0.204-0.209,0.288s-0.188,0.15-0.295,0.198s-0.213,0.071-0.318,0.071
			c-0.248,0-0.457-0.088-0.629-0.264s-0.258-0.388-0.258-0.636S41.886,9.626,42.058,9.45z M43.407,18.162h-1.381v-6.024
			h1.381V18.162z"/>
		<path d="M46.851,18.198l-2.568-6.049h1.465l1.584,4.08l1.729-4.067h0.887l-2.639,6.036H46.851z"/>
		<path d="M51.915,15.557c0.023,0.216,0.07,0.44,0.139,0.672c0.066,0.232,0.176,0.444,0.322,0.637
			c0.148,0.191,0.344,0.352,0.582,0.479c0.24,0.128,0.541,0.192,0.9,0.192c0.297,0,0.697-0.068,1.201-0.204l0.096,0.396
			c-0.248,0.112-0.5,0.217-0.756,0.313s-0.525,0.136-0.805,0.12c-0.424,0-0.814-0.072-1.17-0.216
			c-0.355-0.145-0.666-0.347-0.93-0.606s-0.475-0.57-0.631-0.93c-0.156-0.36-0.242-0.756-0.258-1.188
			c0-0.399,0.072-0.775,0.217-1.128c0.143-0.352,0.346-0.662,0.605-0.93c0.26-0.269,0.566-0.482,0.918-0.643
			c0.352-0.159,0.736-0.247,1.152-0.264c0.439,0.008,0.84,0.09,1.199,0.246c0.361,0.156,0.668,0.368,0.924,0.636
			c0.256,0.269,0.453,0.58,0.588,0.937c0.137,0.355,0.197,0.729,0.182,1.122c0,0.04-0.002,0.098-0.006,0.174
			c-0.006,0.076-0.008,0.138-0.008,0.186H51.915z M52.821,13.103c-0.18,0.108-0.332,0.248-0.457,0.42
			c-0.123,0.173-0.221,0.37-0.293,0.595c-0.072,0.224-0.121,0.456-0.145,0.695h3.145c-0.064-0.655-0.236-1.132-0.516-1.428
			c-0.281-0.296-0.641-0.444-1.08-0.444h-0.025C53.21,12.941,53.001,12.996,52.821,13.103z"/>
		<path d="M63.003,18.185h-1.381v-9.012h1.381V18.185z"/>
		<path d="M68.511,14.004c-0.064-0.268-0.16-0.482-0.287-0.642c-0.129-0.16-0.289-0.274-0.48-0.343
			c-0.191-0.067-0.412-0.098-0.66-0.09c-0.248-0.008-0.477,0.021-0.684,0.084c-0.209,0.064-0.387,0.176-0.535,0.336
			s-0.262,0.376-0.342,0.648c-0.08,0.271-0.119,0.607-0.119,1.008v3.156h-1.381v-2.784c0-0.976,0.258-1.746,0.773-2.311
			c0.518-0.563,1.26-0.846,2.227-0.846c0.537,0,0.992,0.074,1.369,0.222c0.375,0.148,0.682,0.358,0.918,0.631
			c0.234,0.271,0.406,0.602,0.516,0.989c0.107,0.389,0.162,0.826,0.162,1.314v2.784h-1.381v-3.156
			C68.606,14.605,68.575,14.271,68.511,14.004z"/>
		<path d="M74.583,12.845h-1.393v5.34h-1.332v-5.34h-1.404V12.149h1.404v-2.976h1.332v2.976h1.393V12.845z"/>
		<path d="M76.599,15.557c0.023,0.216,0.07,0.44,0.139,0.672c0.066,0.232,0.176,0.444,0.322,0.637
			c0.148,0.191,0.344,0.352,0.582,0.479c0.24,0.128,0.541,0.192,0.9,0.192c0.297,0,0.697-0.068,1.201-0.204l0.096,0.396
			c-0.248,0.112-0.5,0.217-0.756,0.313s-0.525,0.136-0.805,0.12c-0.424,0-0.814-0.072-1.17-0.216
			c-0.355-0.145-0.666-0.347-0.93-0.606s-0.475-0.57-0.631-0.93c-0.156-0.36-0.242-0.756-0.258-1.188
			c0-0.399,0.072-0.775,0.217-1.128c0.143-0.352,0.346-0.662,0.605-0.93c0.26-0.269,0.566-0.482,0.918-0.643
			c0.352-0.159,0.736-0.247,1.152-0.264c0.439,0.008,0.84,0.09,1.199,0.246c0.361,0.156,0.668,0.368,0.924,0.636
			c0.256,0.269,0.453,0.58,0.588,0.937c0.137,0.355,0.197,0.729,0.182,1.122c0,0.04-0.002,0.098-0.006,0.174
			c-0.006,0.076-0.008,0.138-0.008,0.186H76.599z M77.505,13.103c-0.18,0.108-0.332,0.248-0.457,0.42
			c-0.123,0.173-0.221,0.37-0.293,0.595c-0.072,0.224-0.121,0.456-0.145,0.695h3.145c-0.064-0.655-0.236-1.132-0.516-1.428
			c-0.281-0.296-0.641-0.444-1.08-0.444h-0.025C77.894,12.941,77.685,12.996,77.505,13.103z"/>
		<path d="M85.897,12.174c0.096,0,0.188,0.004,0.275,0.012v0.624c-0.096-0.016-0.195-0.025-0.299-0.029
			s-0.205-0.007-0.301-0.007c-0.248-0.008-0.496,0.022-0.744,0.091c-0.248,0.067-0.471,0.182-0.672,0.342
			c-0.199,0.16-0.361,0.374-0.486,0.642c-0.123,0.269-0.186,0.603-0.186,1.002v3.324h-1.379v-2.844
			c0-0.977,0.301-1.746,0.906-2.311c0.604-0.563,1.477-0.846,2.621-0.846C85.722,12.174,85.81,12.174,85.897,12.174z"/>
		<path d="M88.214,20.597h-1.381v-5.412c0.016-0.464,0.084-0.88,0.205-1.248c0.119-0.367,0.301-0.682,0.545-0.941
			s0.561-0.46,0.949-0.601c0.387-0.14,0.857-0.21,1.408-0.21c0.529,0,0.977,0.07,1.346,0.21c0.367,0.141,0.672,0.341,0.912,0.601
			c0.238,0.26,0.42,0.574,0.539,0.941c0.119,0.368,0.188,0.784,0.203,1.248c-0.016,0.464-0.084,0.881-0.203,1.248
			c-0.119,0.368-0.301,0.683-0.539,0.942c-0.24,0.26-0.545,0.458-0.912,0.594c-0.369,0.136-0.816,0.204-1.346,0.204
			c-0.359,0-0.678-0.028-0.953-0.084s-0.529-0.14-0.762-0.252L88.214,20.597z M88.321,16.391
			c0.08,0.269,0.193,0.482,0.342,0.643s0.326,0.273,0.535,0.342c0.207,0.068,0.436,0.098,0.684,0.09
			c0.248,0.008,0.475-0.02,0.684-0.084c0.207-0.063,0.387-0.176,0.533-0.336c0.148-0.16,0.262-0.376,0.342-0.648
			c0.08-0.271,0.121-0.607,0.121-1.008v-0.42c0-0.399-0.041-0.735-0.121-1.008c-0.08-0.271-0.193-0.488-0.342-0.648
			c-0.146-0.159-0.326-0.271-0.533-0.336c-0.209-0.063-0.436-0.092-0.684-0.084c-0.248-0.008-0.477,0.022-0.684,0.09
			c-0.209,0.068-0.387,0.183-0.535,0.343s-0.262,0.374-0.342,0.642c-0.08,0.269-0.119,0.603-0.119,1.002v0.42
			C88.202,15.79,88.241,16.124,88.321,16.391z"/>
		<path d="M97.753,12.174c0.096,0,0.188,0.004,0.275,0.012v0.624c-0.096-0.016-0.195-0.025-0.299-0.029
			s-0.205-0.007-0.301-0.007c-0.248-0.008-0.496,0.022-0.744,0.091c-0.248,0.067-0.471,0.182-0.672,0.342
			c-0.199,0.16-0.361,0.374-0.486,0.642c-0.123,0.269-0.186,0.603-0.186,1.002v3.324h-1.379v-2.844
			c0-0.977,0.301-1.746,0.906-2.311c0.604-0.563,1.477-0.846,2.621-0.846C97.577,12.174,97.665,12.174,97.753,12.174z"/>
		<path d="M99.997,15.557c0.023,0.216,0.07,0.44,0.139,0.672c0.066,0.232,0.176,0.444,0.322,0.637
			c0.148,0.191,0.344,0.352,0.582,0.479c0.24,0.128,0.541,0.192,0.9,0.192c0.297,0,0.697-0.068,1.201-0.204l0.096,0.396
			c-0.248,0.112-0.5,0.217-0.756,0.313s-0.525,0.136-0.805,0.12c-0.424,0-0.814-0.072-1.17-0.216
			c-0.355-0.145-0.666-0.347-0.93-0.606s-0.475-0.57-0.631-0.93c-0.156-0.36-0.242-0.756-0.258-1.188
			c0-0.399,0.072-0.775,0.217-1.128c0.143-0.352,0.346-0.662,0.605-0.93c0.26-0.269,0.566-0.482,0.918-0.643
			c0.352-0.159,0.736-0.247,1.152-0.264c0.439,0.008,0.84,0.09,1.199,0.246c0.361,0.156,0.668,0.368,0.924,0.636
			c0.256,0.269,0.453,0.58,0.588,0.937c0.137,0.355,0.197,0.729,0.182,1.122c0,0.04-0.002,0.098-0.006,0.174
			c-0.006,0.076-0.008,0.138-0.008,0.186H99.997z M100.903,13.103c-0.18,0.108-0.332,0.248-0.457,0.42
			c-0.123,0.173-0.221,0.37-0.293,0.595c-0.072,0.224-0.121,0.456-0.145,0.695h3.145c-0.064-0.655-0.236-1.132-0.516-1.428
			c-0.281-0.296-0.641-0.444-1.08-0.444h-0.025C101.292,12.941,101.083,12.996,100.903,13.103z"/>
		<path d="M109.081,12.845h-1.393v5.34h-1.332v-5.34h-1.404V12.149h1.404v-2.976h1.332v2.976h1.393V12.845z"/>
		<path d="M110.046,9.45c0.172-0.176,0.383-0.265,0.631-0.265s0.459,0.089,0.635,0.265c0.178,0.176,0.266,0.388,0.266,0.636
			c0,0.12-0.027,0.234-0.078,0.342c-0.053,0.108-0.123,0.204-0.211,0.288s-0.186,0.15-0.293,0.198
			c-0.109,0.048-0.215,0.071-0.318,0.071c-0.248,0-0.459-0.088-0.631-0.264s-0.258-0.388-0.258-0.636
			S109.874,9.626,110.046,9.45z M111.395,18.162h-1.379v-6.024h1.379V18.162z"/>
		<path d="M117.085,14.004c-0.064-0.268-0.16-0.482-0.289-0.642c-0.127-0.16-0.287-0.274-0.48-0.343
			c-0.191-0.067-0.412-0.098-0.66-0.09c-0.248-0.008-0.475,0.021-0.684,0.084c-0.207,0.064-0.385,0.176-0.533,0.336
			s-0.262,0.376-0.342,0.648c-0.08,0.271-0.121,0.607-0.121,1.008v3.156h-1.379v-2.784c0-0.976,0.258-1.746,0.773-2.311
			c0.516-0.563,1.258-0.846,2.227-0.846c0.535,0,0.992,0.074,1.367,0.222c0.377,0.148,0.682,0.358,0.918,0.631
			c0.236,0.271,0.408,0.602,0.516,0.989c0.109,0.389,0.162,0.826,0.162,1.314v2.784h-1.379v-3.156
			C117.181,14.605,117.147,14.271,117.085,14.004z"/>
		<path d="M122.124,19.517c0,0.145,0,0.288,0,0.433c0,0.151,0.002,0.289,0.006,0.414c0.004,0.123,0.014,0.201,0.029,0.233h-1.428
			v-1.08c0.016-0.184,0.051-0.344,0.102-0.479c0.053-0.137,0.127-0.257,0.223-0.36s0.211-0.202,0.348-0.294
			s0.301-0.19,0.492-0.294c-0.736-0.16-1.309-0.488-1.717-0.984c-0.408-0.495-0.627-1.128-0.66-1.896
			c0.041-0.928,0.357-1.66,0.949-2.196s1.416-0.804,2.471-0.804c1.113,0,1.971,0.268,2.574,0.804
			c0.605,0.536,0.922,1.269,0.955,2.196c0,0.368-0.055,0.731-0.162,1.092s-0.275,0.68-0.504,0.96s-0.521,0.506-0.883,0.678
			c-0.359,0.173-0.795,0.25-1.307,0.234c-0.369,0.04-0.693,0.134-0.973,0.282c-0.281,0.147-0.453,0.405-0.516,0.773
			C122.124,19.286,122.124,19.382,122.124,19.517z M124.901,13.992c-0.125-0.269-0.285-0.482-0.486-0.643
			c-0.199-0.16-0.424-0.273-0.672-0.342c-0.248-0.067-0.496-0.098-0.744-0.09c-0.248-0.008-0.498,0.02-0.75,0.084
			s-0.479,0.176-0.678,0.336s-0.361,0.376-0.486,0.647c-0.123,0.272-0.186,0.608-0.186,1.009v0.42
			c0,0.399,0.063,0.736,0.186,1.008c0.125,0.272,0.287,0.488,0.486,0.648c0.199,0.159,0.426,0.271,0.678,0.336
			c0.252,0.063,0.502,0.092,0.75,0.084c0.24,0.008,0.48-0.019,0.721-0.078c0.24-0.061,0.457-0.164,0.654-0.313
			c0.195-0.147,0.359-0.344,0.492-0.588c0.131-0.244,0.205-0.55,0.221-0.918v-0.6C125.087,14.594,125.024,14.26,124.901,13.992
			z"/>
	</g>
	<g>
		<g>
			<path d="M11.4,29.515h-2.68c-1.186-0.009-2.091-0.309-2.718-0.901c-0.626-0.593-0.939-1.401-0.939-2.426v-6.222h1.461
				v6.691c0,0.424,0.065,0.774,0.196,1.055c0.131,0.279,0.301,0.506,0.508,0.679c0.208,0.174,0.442,0.295,0.705,0.362
				s0.524,0.102,0.787,0.102h2.68V29.515z"/>
			<path d="M18.232,29.503h-1.461v-9.536h1.461V29.503z"/>
		</g>
		<g>
			<path d="M0,7.197c0.033,0.06,0.095,0.096,0.163,0.096h7.74c0.066,0,0.127-0.035,0.161-0.092
				c0.033-0.058,0.034-0.129,0.001-0.187l-3.87-6.919c-0.032-0.06-0.095-0.096-0.162-0.096h-7.74
				c-0.066,0-0.128,0.035-0.161,0.092c-0.034,0.058-0.034,0.129-0.002,0.187L0,7.197z"/>
			<path d="M8.064,8.643c-0.034-0.058-0.095-0.092-0.161-0.092h-7.74c-0.068,0-0.13,0.036-0.163,0.095l-3.87,6.919
				c-0.032,0.058-0.032,0.129,0.002,0.187c0.033,0.058,0.095,0.092,0.161,0.092h7.74c0.067,0,0.13-0.035,0.162-0.095l3.87-6.919
				C8.099,8.781,8.098,8.701,8.064,8.643z"/>
			<path d="M15.553,0h-7.739c-0.059,0-0.114,0.027-0.149,0.073s-0.047,0.106-0.031,0.163l1.908,6.919
				c0.022,0.081,0.097,0.138,0.181,0.138h7.739c0.059,0,0.113-0.027,0.149-0.073c0.035-0.046,0.047-0.107,0.031-0.163
				l-1.908-6.919C15.71,0.055,15.637,0,15.553,0z"/>
			<path d="M17.461,8.552h-7.739c-0.084,0-0.158,0.056-0.181,0.137l-1.908,6.92c-0.016,0.056-0.004,0.116,0.031,0.162
				c0.035,0.047,0.091,0.073,0.149,0.073h7.739c0.084,0,0.157-0.056,0.181-0.137l1.908-6.919c0.016-0.057,0.004-0.117-0.031-0.163
				C17.574,8.578,17.52,8.552,17.461,8.552z"/>
			<path d="M27.018,0h-7.739c-0.104,0-0.188,0.084-0.188,0.187v6.919c0,0.104,0.084,0.188,0.188,0.188h7.739
				c0.104,0,0.188-0.084,0.188-0.188v-6.919C27.205,0.084,27.121,0,27.018,0z"/>
			<path d="M27.018,8.552h-7.739c-0.104,0-0.188,0.083-0.188,0.187v6.919c0,0.104,0.084,0.187,0.188,0.187h7.739
				c0.104,0,0.188-0.083,0.188-0.187v-6.919C27.205,8.635,27.121,8.552,27.018,8.552z"/>
		</g>
	</g>
</svg>
