<?xml version="1.0" encoding="utf-8"?>
<svg id="logo" version="1.1"
	 xmlns="http://www.w3.org/2000/svg" xmlns:xlink="http://www.w3.org/1999/xlink" viewBox="0 0 31.4 15.9">
	<g>
		<path d="M4,7.197c0.033,0.06,0.095,0.096,0.163,0.096h7.74c0.066,0,0.127-0.035,0.161-0.092
			c0.033-0.058,0.034-0.129,0.001-0.187l-3.87-6.919c-0.032-0.06-0.095-0.096-0.162-0.096h-7.74
			c-0.066,0-0.128,0.035-0.161,0.092c-0.034,0.058-0.034,0.129-0.002,0.187L4,7.197z"/>
		<path d="M12.064,8.643c-0.034-0.058-0.095-0.092-0.161-0.092h-7.74c-0.068,0-0.13,0.036-0.163,0.095l-3.87,6.919
			c-0.032,0.058-0.032,0.129,0.002,0.187c0.033,0.058,0.095,0.092,0.161,0.092h7.74c0.067,0,0.13-0.035,0.162-0.095l3.87-6.919
			C12.099,8.781,12.098,8.701,12.064,8.643z"/>
		<path d="M19.553,0h-7.739c-0.059,0-0.114,0.027-0.149,0.073s-0.047,0.106-0.031,0.163l1.908,6.919
			c0.022,0.081,0.097,0.138,0.181,0.138h7.739c0.059,0,0.113-0.027,0.149-0.073c0.035-0.046,0.047-0.107,0.031-0.163
			l-1.908-6.919C19.71,0.055,19.637,0,19.553,0z"/>
		<path d="M21.461,8.552h-7.739c-0.084,0-0.158,0.056-0.181,0.137l-1.908,6.92c-0.016,0.056-0.004,0.116,0.031,0.162
			c0.035,0.047,0.091,0.073,0.149,0.073h7.739c0.084,0,0.157-0.056,0.181-0.137l1.908-6.919c0.016-0.057,0.004-0.117-0.031-0.163
			C21.574,8.578,21.52,8.552,21.461,8.552z"/>
		<path d="M31.018,0h-7.739c-0.104,0-0.188,0.084-0.188,0.187v6.919c0,0.104,0.084,0.188,0.188,0.188h7.739
			c0.104,0,0.188-0.084,0.188-0.188v-6.919C31.205,0.084,31.121,0,31.018,0z"/>
		<path d="M31.018,8.552h-7.739c-0.104,0-0.188,0.083-0.188,0.187v6.919c0,0.104,0.084,0.187,0.188,0.187h7.739
			c0.104,0,0.188-0.083,0.188-0.187v-6.919C31.205,8.635,31.121,8.552,31.018,8.552z"/>
	</g>
</svg>
